<svg viewBox="0 0 1016 1063.18" xmlns="http://www.w3.org/2000/svg"><path d="M507.8 21.333c164.352 0 297.586 133.234 297.586 297.587S672.152 616.507 507.8 616.507c-164.354 0-297.588-133.234-297.588-297.587.2-164.272 133.315-297.386 297.568-297.587h.02zm0 506.738c115.51 0 209.15-93.64 209.15-209.15S623.31 109.77 507.8 109.77c-115.512 0-209.152 93.64-209.152 209.15.126 115.46 93.69 209.025 209.14 209.15h.01zm420.778 517.263l-16.36-90.735c-36.276-193.045-203.51-337.16-404.414-337.206h-.027c-200.725 0-367.86 143.813-403.992 334.023l-.405 2.565-16.315 90.47L0 1028.62l16.36-90.647C60.736 703.72 263.826 528.957 507.734 528.957h.07-.003c244.14.062 447.356 175.213 490.91 406.71l.484 3.102 16.405 90.867z"/></svg>